<mxfile host="app.diagrams.net" modified="2020-10-29T05:47:03.928Z" agent="5.0 (Windows NT 10.0; Win64; x64) AppleWebKit/537.36 (KHTML, like Gecko) Chrome/86.0.4240.75 Safari/537.36" etag="ZRMLA94EQJlLeZVy0oqv" version="13.8.5" type="github" pages="4">
  <diagram id="iozTRtByqDm2UEkQdX8l" name="Page-1">
    <mxGraphModel dx="3047" dy="1056" grid="0" gridSize="10" guides="1" tooltips="1" connect="1" arrows="1" fold="1" page="1" pageScale="1" pageWidth="1654" pageHeight="1169" math="0" shadow="0">
      <root>
        <mxCell id="0" />
        <mxCell id="1" parent="0" />
        <mxCell id="Am2a06knGkdfp-OETruF-3" style="edgeStyle=orthogonalEdgeStyle;rounded=0;orthogonalLoop=1;jettySize=auto;html=1;dashed=1;endArrow=none;endFill=0;" edge="1" parent="1" source="Am2a06knGkdfp-OETruF-1">
          <mxGeometry relative="1" as="geometry">
            <mxPoint x="180" y="920" as="targetPoint" />
          </mxGeometry>
        </mxCell>
        <mxCell id="Am2a06knGkdfp-OETruF-1" value=":Duke" style="rounded=0;whiteSpace=wrap;html=1;" vertex="1" parent="1">
          <mxGeometry x="120" y="120" width="120" height="40" as="geometry" />
        </mxCell>
        <mxCell id="Am2a06knGkdfp-OETruF-6" style="edgeStyle=orthogonalEdgeStyle;rounded=0;orthogonalLoop=1;jettySize=auto;html=1;endArrow=none;endFill=0;startArrow=open;startFill=0;" edge="1" parent="1" source="Am2a06knGkdfp-OETruF-4">
          <mxGeometry relative="1" as="geometry">
            <mxPoint x="180" y="180" as="targetPoint" />
          </mxGeometry>
        </mxCell>
        <mxCell id="Am2a06knGkdfp-OETruF-88" value="new Parser(&quot;list date&quot;)" style="edgeLabel;html=1;align=center;verticalAlign=middle;resizable=0;points=[];" vertex="1" connectable="0" parent="Am2a06knGkdfp-OETruF-6">
          <mxGeometry x="-0.3389" y="1" relative="1" as="geometry">
            <mxPoint x="-23.79" y="-11" as="offset" />
          </mxGeometry>
        </mxCell>
        <mxCell id="Am2a06knGkdfp-OETruF-4" value=":Parser" style="rounded=0;whiteSpace=wrap;html=1;" vertex="1" parent="1">
          <mxGeometry x="320" y="160" width="100" height="40" as="geometry" />
        </mxCell>
        <mxCell id="Am2a06knGkdfp-OETruF-10" style="edgeStyle=orthogonalEdgeStyle;rounded=0;orthogonalLoop=1;jettySize=auto;html=1;startArrow=none;startFill=0;endArrow=open;endFill=0;dashed=1;" edge="1" parent="1" source="Am2a06knGkdfp-OETruF-7">
          <mxGeometry relative="1" as="geometry">
            <mxPoint x="180" y="300" as="targetPoint" />
            <Array as="points">
              <mxPoint x="200" y="300" />
            </Array>
          </mxGeometry>
        </mxCell>
        <mxCell id="Am2a06knGkdfp-OETruF-7" value="" style="rounded=0;whiteSpace=wrap;html=1;" vertex="1" parent="1">
          <mxGeometry x="360" y="200" width="20" height="100" as="geometry" />
        </mxCell>
        <mxCell id="Am2a06knGkdfp-OETruF-8" value="" style="rounded=0;whiteSpace=wrap;html=1;" vertex="1" parent="1">
          <mxGeometry x="370" y="220" width="20" height="40" as="geometry" />
        </mxCell>
        <mxCell id="Am2a06knGkdfp-OETruF-9" value="" style="endArrow=classic;html=1;entryX=1;entryY=0;entryDx=0;entryDy=0;exitX=1;exitY=0;exitDx=0;exitDy=0;" edge="1" parent="1" source="Am2a06knGkdfp-OETruF-7" target="Am2a06knGkdfp-OETruF-8">
          <mxGeometry width="50" height="50" relative="1" as="geometry">
            <mxPoint x="390" y="205" as="sourcePoint" />
            <mxPoint x="410" y="230" as="targetPoint" />
            <Array as="points">
              <mxPoint x="400" y="210" />
            </Array>
          </mxGeometry>
        </mxCell>
        <mxCell id="Am2a06knGkdfp-OETruF-14" value="" style="endArrow=none;dashed=1;html=1;" edge="1" parent="1">
          <mxGeometry width="50" height="50" relative="1" as="geometry">
            <mxPoint x="370" y="320" as="sourcePoint" />
            <mxPoint x="370" y="300" as="targetPoint" />
          </mxGeometry>
        </mxCell>
        <mxCell id="Am2a06knGkdfp-OETruF-15" value="" style="rounded=0;whiteSpace=wrap;html=1;" vertex="1" parent="1">
          <mxGeometry x="360" y="320" width="20" height="160" as="geometry" />
        </mxCell>
        <mxCell id="Am2a06knGkdfp-OETruF-16" style="edgeStyle=orthogonalEdgeStyle;rounded=0;orthogonalLoop=1;jettySize=auto;html=1;endArrow=none;endFill=0;startArrow=open;startFill=0;" edge="1" parent="1">
          <mxGeometry relative="1" as="geometry">
            <mxPoint x="180" y="320" as="targetPoint" />
            <mxPoint x="360" y="320" as="sourcePoint" />
          </mxGeometry>
        </mxCell>
        <mxCell id="Am2a06knGkdfp-OETruF-89" value="parseCommand()" style="edgeLabel;html=1;align=center;verticalAlign=middle;resizable=0;points=[];" vertex="1" connectable="0" parent="Am2a06knGkdfp-OETruF-16">
          <mxGeometry x="0.2728" relative="1" as="geometry">
            <mxPoint x="24.48" y="-10" as="offset" />
          </mxGeometry>
        </mxCell>
        <mxCell id="Am2a06knGkdfp-OETruF-17" value="ListCommand" style="edgeStyle=orthogonalEdgeStyle;rounded=0;orthogonalLoop=1;jettySize=auto;html=1;startArrow=none;startFill=0;endArrow=open;endFill=0;dashed=1;" edge="1" parent="1">
          <mxGeometry x="0.7775" y="-71" relative="1" as="geometry">
            <mxPoint x="180" y="480" as="targetPoint" />
            <mxPoint x="360" y="480" as="sourcePoint" />
            <Array as="points">
              <mxPoint x="200" y="480" />
            </Array>
            <mxPoint x="70" y="61" as="offset" />
          </mxGeometry>
        </mxCell>
        <mxCell id="Am2a06knGkdfp-OETruF-18" value="" style="rounded=0;whiteSpace=wrap;html=1;" vertex="1" parent="1">
          <mxGeometry x="370" y="340" width="20" height="110" as="geometry" />
        </mxCell>
        <mxCell id="Am2a06knGkdfp-OETruF-20" value="" style="endArrow=classic;html=1;entryX=1;entryY=0;entryDx=0;entryDy=0;exitX=1;exitY=0;exitDx=0;exitDy=0;" edge="1" parent="1">
          <mxGeometry width="50" height="50" relative="1" as="geometry">
            <mxPoint x="380" y="320" as="sourcePoint" />
            <mxPoint x="390" y="340" as="targetPoint" />
            <Array as="points">
              <mxPoint x="400" y="325" />
            </Array>
          </mxGeometry>
        </mxCell>
        <mxCell id="Am2a06knGkdfp-OETruF-90" value="prepareListCommand(&quot;list date&quot;)" style="edgeLabel;html=1;align=center;verticalAlign=middle;resizable=0;points=[];" vertex="1" connectable="0" parent="Am2a06knGkdfp-OETruF-20">
          <mxGeometry x="-0.2754" y="-1" relative="1" as="geometry">
            <mxPoint x="76.77" y="-14.34" as="offset" />
          </mxGeometry>
        </mxCell>
        <mxCell id="Am2a06knGkdfp-OETruF-21" value="" style="endArrow=classic;html=1;entryX=1;entryY=1;entryDx=0;entryDy=0;exitX=1;exitY=1;exitDx=0;exitDy=0;dashed=1;" edge="1" parent="1" source="Am2a06knGkdfp-OETruF-18" target="Am2a06knGkdfp-OETruF-15">
          <mxGeometry width="50" height="50" relative="1" as="geometry">
            <mxPoint x="390" y="450" as="sourcePoint" />
            <mxPoint x="400" y="470" as="targetPoint" />
            <Array as="points">
              <mxPoint x="400" y="470" />
            </Array>
          </mxGeometry>
        </mxCell>
        <mxCell id="Am2a06knGkdfp-OETruF-22" value=":ListCommand" style="rounded=0;whiteSpace=wrap;html=1;" vertex="1" parent="1">
          <mxGeometry x="530" y="320" width="100" height="40" as="geometry" />
        </mxCell>
        <mxCell id="Am2a06knGkdfp-OETruF-23" style="edgeStyle=orthogonalEdgeStyle;rounded=0;orthogonalLoop=1;jettySize=auto;html=1;endArrow=none;endFill=0;startArrow=open;startFill=0;exitX=0;exitY=0.5;exitDx=0;exitDy=0;" edge="1" parent="1" source="Am2a06knGkdfp-OETruF-22">
          <mxGeometry relative="1" as="geometry">
            <mxPoint x="390.0000000000001" y="340" as="targetPoint" />
            <mxPoint x="500" y="340" as="sourcePoint" />
          </mxGeometry>
        </mxCell>
        <mxCell id="Am2a06knGkdfp-OETruF-91" value="new ListCommand(date)" style="edgeLabel;html=1;align=center;verticalAlign=middle;resizable=0;points=[];" vertex="1" connectable="0" parent="Am2a06knGkdfp-OETruF-23">
          <mxGeometry x="0.227" relative="1" as="geometry">
            <mxPoint x="15.83" y="-10" as="offset" />
          </mxGeometry>
        </mxCell>
        <mxCell id="Am2a06knGkdfp-OETruF-25" value="" style="rounded=0;whiteSpace=wrap;html=1;" vertex="1" parent="1">
          <mxGeometry x="570" y="360" width="20" height="90" as="geometry" />
        </mxCell>
        <mxCell id="Am2a06knGkdfp-OETruF-26" value="" style="rounded=0;whiteSpace=wrap;html=1;" vertex="1" parent="1">
          <mxGeometry x="580" y="380" width="20" height="40" as="geometry" />
        </mxCell>
        <mxCell id="Am2a06knGkdfp-OETruF-28" value="" style="endArrow=classic;html=1;entryX=1;entryY=0;entryDx=0;entryDy=0;exitX=1;exitY=0;exitDx=0;exitDy=0;" edge="1" parent="1">
          <mxGeometry width="50" height="50" relative="1" as="geometry">
            <mxPoint x="590" y="360" as="sourcePoint" />
            <mxPoint x="600" y="380" as="targetPoint" />
            <Array as="points">
              <mxPoint x="610" y="370" />
            </Array>
          </mxGeometry>
        </mxCell>
        <mxCell id="Am2a06knGkdfp-OETruF-29" value="" style="endArrow=classic;html=1;entryX=1;entryY=1;entryDx=0;entryDy=0;exitX=1;exitY=0;exitDx=0;exitDy=0;dashed=1;" edge="1" parent="1" target="Am2a06knGkdfp-OETruF-25">
          <mxGeometry width="50" height="50" relative="1" as="geometry">
            <mxPoint x="600" y="420" as="sourcePoint" />
            <mxPoint x="610" y="440" as="targetPoint" />
            <Array as="points">
              <mxPoint x="610" y="430" />
            </Array>
          </mxGeometry>
        </mxCell>
        <mxCell id="Am2a06knGkdfp-OETruF-92" value="date" style="edgeLabel;html=1;align=center;verticalAlign=middle;resizable=0;points=[];" vertex="1" connectable="0" parent="Am2a06knGkdfp-OETruF-29">
          <mxGeometry x="-0.4222" y="-3" relative="1" as="geometry">
            <mxPoint x="13.4" as="offset" />
          </mxGeometry>
        </mxCell>
        <mxCell id="Am2a06knGkdfp-OETruF-31" style="edgeStyle=orthogonalEdgeStyle;rounded=0;orthogonalLoop=1;jettySize=auto;html=1;startArrow=none;startFill=0;endArrow=open;endFill=0;dashed=1;" edge="1" parent="1">
          <mxGeometry relative="1" as="geometry">
            <mxPoint x="390.0000000000001" y="450" as="targetPoint" />
            <mxPoint x="570" y="450" as="sourcePoint" />
            <Array as="points">
              <mxPoint x="410" y="450" />
            </Array>
          </mxGeometry>
        </mxCell>
        <mxCell id="Am2a06knGkdfp-OETruF-93" value="listCommand" style="edgeLabel;html=1;align=center;verticalAlign=middle;resizable=0;points=[];" vertex="1" connectable="0" parent="Am2a06knGkdfp-OETruF-31">
          <mxGeometry x="0.1889" y="1" relative="1" as="geometry">
            <mxPoint x="17" y="-11" as="offset" />
          </mxGeometry>
        </mxCell>
        <mxCell id="Am2a06knGkdfp-OETruF-32" value="" style="endArrow=none;dashed=1;html=1;" edge="1" parent="1">
          <mxGeometry width="50" height="50" relative="1" as="geometry">
            <mxPoint x="579" y="500" as="sourcePoint" />
            <mxPoint x="579.31" y="450" as="targetPoint" />
          </mxGeometry>
        </mxCell>
        <mxCell id="Am2a06knGkdfp-OETruF-34" style="edgeStyle=orthogonalEdgeStyle;rounded=0;orthogonalLoop=1;jettySize=auto;html=1;startArrow=open;startFill=0;endArrow=none;endFill=0;" edge="1" parent="1" source="Am2a06knGkdfp-OETruF-33">
          <mxGeometry relative="1" as="geometry">
            <mxPoint x="180" y="500" as="targetPoint" />
            <Array as="points">
              <mxPoint x="240" y="500" />
            </Array>
          </mxGeometry>
        </mxCell>
        <mxCell id="Am2a06knGkdfp-OETruF-94" value="execute()" style="edgeLabel;html=1;align=center;verticalAlign=middle;resizable=0;points=[];" vertex="1" connectable="0" parent="Am2a06knGkdfp-OETruF-34">
          <mxGeometry x="0.6923" y="-151" relative="1" as="geometry">
            <mxPoint x="259.71" y="141" as="offset" />
          </mxGeometry>
        </mxCell>
        <mxCell id="Am2a06knGkdfp-OETruF-33" value="" style="rounded=0;whiteSpace=wrap;html=1;" vertex="1" parent="1">
          <mxGeometry x="570" y="500" width="20" height="310" as="geometry" />
        </mxCell>
        <mxCell id="Am2a06knGkdfp-OETruF-36" style="edgeStyle=orthogonalEdgeStyle;rounded=0;orthogonalLoop=1;jettySize=auto;html=1;startArrow=none;startFill=0;endArrow=none;endFill=0;dashed=1;" edge="1" parent="1" source="Am2a06knGkdfp-OETruF-38">
          <mxGeometry relative="1" as="geometry">
            <mxPoint x="827" y="970" as="targetPoint" />
            <Array as="points">
              <mxPoint x="827" y="965" />
            </Array>
          </mxGeometry>
        </mxCell>
        <mxCell id="Am2a06knGkdfp-OETruF-35" value=":DayMap" style="rounded=0;whiteSpace=wrap;html=1;" vertex="1" parent="1">
          <mxGeometry x="767" y="120" width="120" height="40" as="geometry" />
        </mxCell>
        <mxCell id="Am2a06knGkdfp-OETruF-37" style="edgeStyle=orthogonalEdgeStyle;rounded=0;orthogonalLoop=1;jettySize=auto;html=1;endArrow=none;endFill=0;startArrow=open;startFill=0;exitX=0;exitY=0;exitDx=0;exitDy=0;" edge="1" parent="1" source="Am2a06knGkdfp-OETruF-38">
          <mxGeometry relative="1" as="geometry">
            <mxPoint x="590" y="520" as="targetPoint" />
            <mxPoint x="910" y="520" as="sourcePoint" />
            <Array as="points">
              <mxPoint x="750" y="520" />
              <mxPoint x="750" y="520" />
            </Array>
          </mxGeometry>
        </mxCell>
        <mxCell id="Am2a06knGkdfp-OETruF-40" value="getActivityList(date)" style="edgeLabel;html=1;align=center;verticalAlign=middle;resizable=0;points=[];" vertex="1" connectable="0" parent="Am2a06knGkdfp-OETruF-37">
          <mxGeometry x="-0.0941" y="-4" relative="1" as="geometry">
            <mxPoint x="-5.29" y="-6" as="offset" />
          </mxGeometry>
        </mxCell>
        <mxCell id="Am2a06knGkdfp-OETruF-38" value="" style="rounded=0;whiteSpace=wrap;html=1;" vertex="1" parent="1">
          <mxGeometry x="817" y="520" width="20" height="50" as="geometry" />
        </mxCell>
        <mxCell id="Am2a06knGkdfp-OETruF-39" style="edgeStyle=orthogonalEdgeStyle;rounded=0;orthogonalLoop=1;jettySize=auto;html=1;startArrow=none;startFill=0;endArrow=none;endFill=0;dashed=1;" edge="1" parent="1" source="Am2a06knGkdfp-OETruF-35" target="Am2a06knGkdfp-OETruF-38">
          <mxGeometry relative="1" as="geometry">
            <mxPoint x="817" y="964.7058823529412" as="targetPoint" />
            <mxPoint x="827" y="160" as="sourcePoint" />
            <Array as="points">
              <mxPoint x="827" y="400" />
              <mxPoint x="827" y="400" />
            </Array>
          </mxGeometry>
        </mxCell>
        <mxCell id="Am2a06knGkdfp-OETruF-41" style="edgeStyle=orthogonalEdgeStyle;rounded=0;orthogonalLoop=1;jettySize=auto;html=1;startArrow=none;startFill=0;endArrow=open;endFill=0;dashed=1;" edge="1" parent="1">
          <mxGeometry relative="1" as="geometry">
            <mxPoint x="590" y="569.31" as="targetPoint" />
            <mxPoint x="817" y="569.3399999999999" as="sourcePoint" />
            <Array as="points">
              <mxPoint x="590" y="569.31" />
            </Array>
          </mxGeometry>
        </mxCell>
        <mxCell id="Am2a06knGkdfp-OETruF-53" value="activityList" style="edgeLabel;html=1;align=center;verticalAlign=middle;resizable=0;points=[];" vertex="1" connectable="0" parent="Am2a06knGkdfp-OETruF-41">
          <mxGeometry x="-0.1852" y="1" relative="1" as="geometry">
            <mxPoint x="-14.59" y="-11.03" as="offset" />
          </mxGeometry>
        </mxCell>
        <mxCell id="Am2a06knGkdfp-OETruF-43" value="lastSeenList:ActivityList" style="rounded=0;whiteSpace=wrap;html=1;" vertex="1" parent="1">
          <mxGeometry x="960" y="610" width="140" height="40" as="geometry" />
        </mxCell>
        <mxCell id="Am2a06knGkdfp-OETruF-47" value="" style="rounded=0;whiteSpace=wrap;html=1;" vertex="1" parent="1">
          <mxGeometry x="1020" y="650" width="20" height="20" as="geometry" />
        </mxCell>
        <mxCell id="Am2a06knGkdfp-OETruF-50" value="" style="rounded=0;whiteSpace=wrap;html=1;" vertex="1" parent="1">
          <mxGeometry x="817" y="620" width="20" height="60" as="geometry" />
        </mxCell>
        <mxCell id="Am2a06knGkdfp-OETruF-51" style="edgeStyle=orthogonalEdgeStyle;rounded=0;orthogonalLoop=1;jettySize=auto;html=1;endArrow=none;endFill=0;startArrow=open;startFill=0;exitX=0;exitY=0;exitDx=0;exitDy=0;" edge="1" parent="1">
          <mxGeometry relative="1" as="geometry">
            <mxPoint x="590" y="620" as="targetPoint" />
            <mxPoint x="817" y="620" as="sourcePoint" />
            <Array as="points">
              <mxPoint x="750" y="620" />
              <mxPoint x="750" y="620" />
            </Array>
          </mxGeometry>
        </mxCell>
        <mxCell id="Am2a06knGkdfp-OETruF-52" value="setLastSeenList(activityList)" style="edgeLabel;html=1;align=center;verticalAlign=middle;resizable=0;points=[];" vertex="1" connectable="0" parent="Am2a06knGkdfp-OETruF-51">
          <mxGeometry x="-0.0941" y="-4" relative="1" as="geometry">
            <mxPoint x="-5.29" y="-6" as="offset" />
          </mxGeometry>
        </mxCell>
        <mxCell id="Am2a06knGkdfp-OETruF-54" style="edgeStyle=orthogonalEdgeStyle;rounded=0;orthogonalLoop=1;jettySize=auto;html=1;startArrow=none;startFill=0;endArrow=open;endFill=0;dashed=1;" edge="1" parent="1">
          <mxGeometry relative="1" as="geometry">
            <mxPoint x="590" y="680" as="targetPoint" />
            <mxPoint x="817" y="680.03" as="sourcePoint" />
            <Array as="points">
              <mxPoint x="590" y="680" />
            </Array>
          </mxGeometry>
        </mxCell>
        <mxCell id="Am2a06knGkdfp-OETruF-56" value="" style="rounded=0;whiteSpace=wrap;html=1;" vertex="1" parent="1">
          <mxGeometry x="817" y="710" width="20" height="100" as="geometry" />
        </mxCell>
        <mxCell id="Am2a06knGkdfp-OETruF-57" style="edgeStyle=orthogonalEdgeStyle;rounded=0;orthogonalLoop=1;jettySize=auto;html=1;endArrow=none;endFill=0;startArrow=open;startFill=0;exitX=0;exitY=0;exitDx=0;exitDy=0;" edge="1" parent="1">
          <mxGeometry relative="1" as="geometry">
            <mxPoint x="590" y="710" as="targetPoint" />
            <mxPoint x="817" y="710" as="sourcePoint" />
            <Array as="points">
              <mxPoint x="750" y="710" />
              <mxPoint x="750" y="710" />
            </Array>
          </mxGeometry>
        </mxCell>
        <mxCell id="Am2a06knGkdfp-OETruF-58" value="drawListAfterListCommand(date, lastSeenList)" style="edgeLabel;html=1;align=center;verticalAlign=middle;resizable=0;points=[];" vertex="1" connectable="0" parent="Am2a06knGkdfp-OETruF-57">
          <mxGeometry x="-0.0941" y="-4" relative="1" as="geometry">
            <mxPoint x="-5.29" y="-6" as="offset" />
          </mxGeometry>
        </mxCell>
        <mxCell id="Am2a06knGkdfp-OETruF-60" style="edgeStyle=orthogonalEdgeStyle;rounded=0;orthogonalLoop=1;jettySize=auto;html=1;endArrow=none;endFill=0;startArrow=open;startFill=0;" edge="1" parent="1" target="Am2a06knGkdfp-OETruF-50">
          <mxGeometry relative="1" as="geometry">
            <mxPoint x="840" y="630" as="targetPoint" />
            <mxPoint x="960" y="629.71" as="sourcePoint" />
            <Array as="points">
              <mxPoint x="870" y="630" />
              <mxPoint x="870" y="630" />
            </Array>
          </mxGeometry>
        </mxCell>
        <mxCell id="Am2a06knGkdfp-OETruF-63" style="edgeStyle=orthogonalEdgeStyle;rounded=0;orthogonalLoop=1;jettySize=auto;html=1;startArrow=none;startFill=0;endArrow=open;endFill=0;dashed=1;" edge="1" parent="1">
          <mxGeometry relative="1" as="geometry">
            <mxPoint x="837" y="670" as="targetPoint" />
            <mxPoint x="1020" y="670" as="sourcePoint" />
            <Array as="points">
              <mxPoint x="837" y="670" />
            </Array>
          </mxGeometry>
        </mxCell>
        <mxCell id="Am2a06knGkdfp-OETruF-67" value=":listDrawer" style="rounded=0;whiteSpace=wrap;html=1;" vertex="1" parent="1">
          <mxGeometry x="1080" y="700" width="100" height="40" as="geometry" />
        </mxCell>
        <mxCell id="Am2a06knGkdfp-OETruF-79" style="edgeStyle=orthogonalEdgeStyle;rounded=0;orthogonalLoop=1;jettySize=auto;html=1;dashed=1;startArrow=none;startFill=0;endArrow=none;endFill=0;" edge="1" parent="1" source="Am2a06knGkdfp-OETruF-81">
          <mxGeometry relative="1" as="geometry">
            <mxPoint x="1130" y="810" as="targetPoint" />
            <Array as="points">
              <mxPoint x="1130" y="810" />
            </Array>
          </mxGeometry>
        </mxCell>
        <mxCell id="Am2a06knGkdfp-OETruF-68" value="" style="rounded=0;whiteSpace=wrap;html=1;" vertex="1" parent="1">
          <mxGeometry x="1120" y="740" width="20" height="20" as="geometry" />
        </mxCell>
        <mxCell id="Am2a06knGkdfp-OETruF-69" style="edgeStyle=orthogonalEdgeStyle;rounded=0;orthogonalLoop=1;jettySize=auto;html=1;endArrow=none;endFill=0;startArrow=open;startFill=0;" edge="1" parent="1" source="Am2a06knGkdfp-OETruF-67">
          <mxGeometry relative="1" as="geometry">
            <mxPoint x="837" y="719.6666666666667" as="targetPoint" />
            <mxPoint x="960" y="719.71" as="sourcePoint" />
            <Array as="points">
              <mxPoint x="870" y="720" />
            </Array>
          </mxGeometry>
        </mxCell>
        <mxCell id="Am2a06knGkdfp-OETruF-71" style="edgeStyle=orthogonalEdgeStyle;rounded=0;orthogonalLoop=1;jettySize=auto;html=1;startArrow=none;startFill=0;endArrow=open;endFill=0;dashed=1;" edge="1" parent="1" source="Am2a06knGkdfp-OETruF-68">
          <mxGeometry relative="1" as="geometry">
            <mxPoint x="837" y="760" as="targetPoint" />
            <mxPoint x="1000" y="760" as="sourcePoint" />
            <Array as="points">
              <mxPoint x="1080" y="760" />
              <mxPoint x="1080" y="760" />
            </Array>
          </mxGeometry>
        </mxCell>
        <mxCell id="Am2a06knGkdfp-OETruF-76" style="edgeStyle=orthogonalEdgeStyle;rounded=0;orthogonalLoop=1;jettySize=auto;html=1;endArrow=none;endFill=0;startArrow=open;startFill=0;" edge="1" parent="1">
          <mxGeometry relative="1" as="geometry">
            <mxPoint x="837" y="790" as="targetPoint" />
            <mxPoint x="1120" y="790" as="sourcePoint" />
            <Array as="points">
              <mxPoint x="997" y="790" />
              <mxPoint x="997" y="790" />
            </Array>
          </mxGeometry>
        </mxCell>
        <mxCell id="Am2a06knGkdfp-OETruF-77" value="printListDrawing()" style="edgeLabel;html=1;align=center;verticalAlign=middle;resizable=0;points=[];" vertex="1" connectable="0" parent="Am2a06knGkdfp-OETruF-76">
          <mxGeometry x="-0.0941" y="-4" relative="1" as="geometry">
            <mxPoint x="-11.900000000000006" y="-6" as="offset" />
          </mxGeometry>
        </mxCell>
        <mxCell id="Am2a06knGkdfp-OETruF-81" value="" style="rounded=0;whiteSpace=wrap;html=1;" vertex="1" parent="1">
          <mxGeometry x="1120" y="790" width="20" height="20" as="geometry" />
        </mxCell>
        <mxCell id="Am2a06knGkdfp-OETruF-84" value="" style="endArrow=none;dashed=1;html=1;exitX=0.5;exitY=0;exitDx=0;exitDy=0;" edge="1" parent="1" source="Am2a06knGkdfp-OETruF-81">
          <mxGeometry width="50" height="50" relative="1" as="geometry">
            <mxPoint x="1129.58" y="810" as="sourcePoint" />
            <mxPoint x="1129.8899999999999" y="760" as="targetPoint" />
          </mxGeometry>
        </mxCell>
        <mxCell id="Am2a06knGkdfp-OETruF-85" style="edgeStyle=orthogonalEdgeStyle;rounded=0;orthogonalLoop=1;jettySize=auto;html=1;startArrow=none;startFill=0;endArrow=open;endFill=0;dashed=1;" edge="1" parent="1">
          <mxGeometry relative="1" as="geometry">
            <mxPoint x="837" y="810" as="targetPoint" />
            <mxPoint x="1120" y="810" as="sourcePoint" />
            <Array as="points">
              <mxPoint x="1080" y="810" />
              <mxPoint x="1080" y="810" />
            </Array>
          </mxGeometry>
        </mxCell>
        <mxCell id="Am2a06knGkdfp-OETruF-86" style="edgeStyle=orthogonalEdgeStyle;rounded=0;orthogonalLoop=1;jettySize=auto;html=1;startArrow=none;startFill=0;endArrow=open;endFill=0;dashed=1;" edge="1" parent="1">
          <mxGeometry relative="1" as="geometry">
            <mxPoint x="590" y="810" as="targetPoint" />
            <mxPoint x="794" y="810" as="sourcePoint" />
            <Array as="points">
              <mxPoint x="817" y="810.17" />
              <mxPoint x="817" y="810.17" />
            </Array>
          </mxGeometry>
        </mxCell>
        <mxCell id="Am2a06knGkdfp-OETruF-87" style="edgeStyle=orthogonalEdgeStyle;rounded=0;orthogonalLoop=1;jettySize=auto;html=1;startArrow=none;startFill=0;endArrow=open;endFill=0;dashed=1;" edge="1" parent="1">
          <mxGeometry relative="1" as="geometry">
            <mxPoint x="180" y="810" as="targetPoint" />
            <mxPoint x="547" y="810" as="sourcePoint" />
            <Array as="points">
              <mxPoint x="570" y="810.17" />
              <mxPoint x="570" y="810.17" />
            </Array>
          </mxGeometry>
        </mxCell>
        <mxCell id="Am2a06knGkdfp-OETruF-95" value="" style="endArrow=none;dashed=1;html=1;" edge="1" parent="1">
          <mxGeometry width="50" height="50" relative="1" as="geometry">
            <mxPoint x="1130" y="830" as="sourcePoint" />
            <mxPoint x="1129.7599999999998" y="810" as="targetPoint" />
          </mxGeometry>
        </mxCell>
        <mxCell id="Am2a06knGkdfp-OETruF-96" value="" style="endArrow=none;html=1;" edge="1" parent="1">
          <mxGeometry width="50" height="50" relative="1" as="geometry">
            <mxPoint x="1120" y="840" as="sourcePoint" />
            <mxPoint x="1140" y="820" as="targetPoint" />
          </mxGeometry>
        </mxCell>
        <mxCell id="Am2a06knGkdfp-OETruF-97" value="" style="endArrow=none;html=1;" edge="1" parent="1">
          <mxGeometry width="50" height="50" relative="1" as="geometry">
            <mxPoint x="1140" y="840" as="sourcePoint" />
            <mxPoint x="1120" y="820" as="targetPoint" />
          </mxGeometry>
        </mxCell>
        <mxCell id="Am2a06knGkdfp-OETruF-98" value="" style="endArrow=none;dashed=1;html=1;exitX=0.5;exitY=0;exitDx=0;exitDy=0;" edge="1" parent="1">
          <mxGeometry width="50" height="50" relative="1" as="geometry">
            <mxPoint x="1029.69" y="700" as="sourcePoint" />
            <mxPoint x="1029.5800000000002" y="670" as="targetPoint" />
          </mxGeometry>
        </mxCell>
        <mxCell id="Am2a06knGkdfp-OETruF-100" value="" style="endArrow=none;dashed=1;html=1;" edge="1" parent="1" target="Am2a06knGkdfp-OETruF-33">
          <mxGeometry width="50" height="50" relative="1" as="geometry">
            <mxPoint x="580" y="840" as="sourcePoint" />
            <mxPoint x="580" y="820" as="targetPoint" />
          </mxGeometry>
        </mxCell>
        <mxCell id="Am2a06knGkdfp-OETruF-105" value="" style="endArrow=none;html=1;" edge="1" parent="1">
          <mxGeometry width="50" height="50" relative="1" as="geometry">
            <mxPoint x="570" y="850" as="sourcePoint" />
            <mxPoint x="590" y="830" as="targetPoint" />
          </mxGeometry>
        </mxCell>
        <mxCell id="Am2a06knGkdfp-OETruF-106" value="" style="endArrow=none;html=1;" edge="1" parent="1">
          <mxGeometry width="50" height="50" relative="1" as="geometry">
            <mxPoint x="590" y="850" as="sourcePoint" />
            <mxPoint x="570" y="830" as="targetPoint" />
          </mxGeometry>
        </mxCell>
      </root>
    </mxGraphModel>
  </diagram>
  <diagram id="bd6PiOVS1e4FfZZyEnpd" name="Page-2">
    <mxGraphModel dx="588" dy="858" grid="0" gridSize="10" guides="0" tooltips="1" connect="1" arrows="1" fold="1" page="1" pageScale="1" pageWidth="1654" pageHeight="1169" math="0" shadow="0">
      <root>
        <mxCell id="jC1DPD_Gt9NOsdy32BHI-0" />
        <mxCell id="jC1DPD_Gt9NOsdy32BHI-1" parent="jC1DPD_Gt9NOsdy32BHI-0" />
        <mxCell id="7_GtBMZY59szPdyUF4OI-72" value="" style="rounded=0;whiteSpace=wrap;html=1;strokeWidth=1;" vertex="1" parent="jC1DPD_Gt9NOsdy32BHI-1">
          <mxGeometry x="727" y="61" width="520" height="697" as="geometry" />
        </mxCell>
        <mxCell id="7_GtBMZY59szPdyUF4OI-70" value="" style="rounded=0;whiteSpace=wrap;html=1;strokeWidth=1;" vertex="1" parent="jC1DPD_Gt9NOsdy32BHI-1">
          <mxGeometry x="260" y="60" width="420" height="702" as="geometry" />
        </mxCell>
        <mxCell id="7_GtBMZY59szPdyUF4OI-0" style="edgeStyle=orthogonalEdgeStyle;rounded=0;orthogonalLoop=1;jettySize=auto;html=1;dashed=1;endArrow=none;endFill=0;" edge="1" parent="jC1DPD_Gt9NOsdy32BHI-1" source="7_GtBMZY59szPdyUF4OI-1">
          <mxGeometry relative="1" as="geometry">
            <mxPoint x="180" y="920" as="targetPoint" />
          </mxGeometry>
        </mxCell>
        <mxCell id="7_GtBMZY59szPdyUF4OI-1" value=":Duke" style="rounded=0;whiteSpace=wrap;html=1;" vertex="1" parent="jC1DPD_Gt9NOsdy32BHI-1">
          <mxGeometry x="120" y="120" width="120" height="40" as="geometry" />
        </mxCell>
        <mxCell id="7_GtBMZY59szPdyUF4OI-2" style="edgeStyle=orthogonalEdgeStyle;rounded=0;orthogonalLoop=1;jettySize=auto;html=1;endArrow=none;endFill=0;startArrow=open;startFill=0;" edge="1" parent="jC1DPD_Gt9NOsdy32BHI-1" source="7_GtBMZY59szPdyUF4OI-4">
          <mxGeometry relative="1" as="geometry">
            <mxPoint x="180" y="180" as="targetPoint" />
          </mxGeometry>
        </mxCell>
        <mxCell id="7_GtBMZY59szPdyUF4OI-3" value="new Parser(&quot;list date&quot;)" style="edgeLabel;html=1;align=center;verticalAlign=middle;resizable=0;points=[];labelBackgroundColor=none;" vertex="1" connectable="0" parent="7_GtBMZY59szPdyUF4OI-2">
          <mxGeometry x="-0.3389" y="1" relative="1" as="geometry">
            <mxPoint x="-23.79" y="-11" as="offset" />
          </mxGeometry>
        </mxCell>
        <mxCell id="7_GtBMZY59szPdyUF4OI-4" value=":Parser" style="rounded=0;whiteSpace=wrap;html=1;" vertex="1" parent="jC1DPD_Gt9NOsdy32BHI-1">
          <mxGeometry x="320" y="160" width="100" height="40" as="geometry" />
        </mxCell>
        <mxCell id="7_GtBMZY59szPdyUF4OI-5" style="edgeStyle=orthogonalEdgeStyle;rounded=0;orthogonalLoop=1;jettySize=auto;html=1;startArrow=none;startFill=0;endArrow=open;endFill=0;dashed=1;" edge="1" parent="jC1DPD_Gt9NOsdy32BHI-1" source="7_GtBMZY59szPdyUF4OI-6">
          <mxGeometry relative="1" as="geometry">
            <mxPoint x="180" y="300" as="targetPoint" />
            <Array as="points">
              <mxPoint x="200" y="300" />
            </Array>
          </mxGeometry>
        </mxCell>
        <mxCell id="7_GtBMZY59szPdyUF4OI-6" value="" style="rounded=0;whiteSpace=wrap;html=1;" vertex="1" parent="jC1DPD_Gt9NOsdy32BHI-1">
          <mxGeometry x="360" y="200" width="20" height="100" as="geometry" />
        </mxCell>
        <mxCell id="7_GtBMZY59szPdyUF4OI-7" value="" style="rounded=0;whiteSpace=wrap;html=1;" vertex="1" parent="jC1DPD_Gt9NOsdy32BHI-1">
          <mxGeometry x="370" y="220" width="20" height="40" as="geometry" />
        </mxCell>
        <mxCell id="7_GtBMZY59szPdyUF4OI-8" value="" style="endArrow=classic;html=1;entryX=1;entryY=0;entryDx=0;entryDy=0;exitX=1;exitY=0;exitDx=0;exitDy=0;" edge="1" parent="jC1DPD_Gt9NOsdy32BHI-1" source="7_GtBMZY59szPdyUF4OI-6" target="7_GtBMZY59szPdyUF4OI-7">
          <mxGeometry width="50" height="50" relative="1" as="geometry">
            <mxPoint x="390" y="205" as="sourcePoint" />
            <mxPoint x="410" y="230" as="targetPoint" />
            <Array as="points">
              <mxPoint x="400" y="210" />
            </Array>
          </mxGeometry>
        </mxCell>
        <mxCell id="7_GtBMZY59szPdyUF4OI-9" value="" style="endArrow=none;dashed=1;html=1;" edge="1" parent="jC1DPD_Gt9NOsdy32BHI-1">
          <mxGeometry width="50" height="50" relative="1" as="geometry">
            <mxPoint x="370" y="320" as="sourcePoint" />
            <mxPoint x="370" y="300" as="targetPoint" />
          </mxGeometry>
        </mxCell>
        <mxCell id="7_GtBMZY59szPdyUF4OI-10" value="" style="rounded=0;whiteSpace=wrap;html=1;" vertex="1" parent="jC1DPD_Gt9NOsdy32BHI-1">
          <mxGeometry x="360" y="320" width="20" height="160" as="geometry" />
        </mxCell>
        <mxCell id="7_GtBMZY59szPdyUF4OI-11" style="edgeStyle=orthogonalEdgeStyle;rounded=0;orthogonalLoop=1;jettySize=auto;html=1;endArrow=none;endFill=0;startArrow=open;startFill=0;" edge="1" parent="jC1DPD_Gt9NOsdy32BHI-1">
          <mxGeometry relative="1" as="geometry">
            <mxPoint x="180" y="320" as="targetPoint" />
            <mxPoint x="360" y="320" as="sourcePoint" />
          </mxGeometry>
        </mxCell>
        <mxCell id="7_GtBMZY59szPdyUF4OI-12" value="parseCommand()" style="edgeLabel;html=1;align=center;verticalAlign=middle;resizable=0;points=[];labelBackgroundColor=none;" vertex="1" connectable="0" parent="7_GtBMZY59szPdyUF4OI-11">
          <mxGeometry x="0.2728" relative="1" as="geometry">
            <mxPoint x="24.48" y="-10" as="offset" />
          </mxGeometry>
        </mxCell>
        <mxCell id="7_GtBMZY59szPdyUF4OI-13" value="" style="edgeStyle=orthogonalEdgeStyle;rounded=0;orthogonalLoop=1;jettySize=auto;html=1;startArrow=none;startFill=0;endArrow=open;endFill=0;dashed=1;" edge="1" parent="jC1DPD_Gt9NOsdy32BHI-1">
          <mxGeometry x="0.7778" y="-112" relative="1" as="geometry">
            <mxPoint x="180" y="480" as="targetPoint" />
            <mxPoint x="360" y="480" as="sourcePoint" />
            <Array as="points">
              <mxPoint x="200" y="480" />
            </Array>
            <mxPoint x="110" y="92" as="offset" />
          </mxGeometry>
        </mxCell>
        <mxCell id="7_GtBMZY59szPdyUF4OI-14" value="" style="rounded=0;whiteSpace=wrap;html=1;" vertex="1" parent="jC1DPD_Gt9NOsdy32BHI-1">
          <mxGeometry x="370" y="340" width="20" height="110" as="geometry" />
        </mxCell>
        <mxCell id="7_GtBMZY59szPdyUF4OI-15" value="" style="endArrow=classic;html=1;entryX=1;entryY=0;entryDx=0;entryDy=0;exitX=1;exitY=0;exitDx=0;exitDy=0;" edge="1" parent="jC1DPD_Gt9NOsdy32BHI-1">
          <mxGeometry width="50" height="50" relative="1" as="geometry">
            <mxPoint x="380" y="320" as="sourcePoint" />
            <mxPoint x="390" y="340" as="targetPoint" />
            <Array as="points">
              <mxPoint x="400" y="325" />
            </Array>
          </mxGeometry>
        </mxCell>
        <mxCell id="7_GtBMZY59szPdyUF4OI-16" value="prepareListCommand(&quot;list date&quot;)" style="edgeLabel;html=1;align=center;verticalAlign=middle;resizable=0;points=[];labelBackgroundColor=none;" vertex="1" connectable="0" parent="7_GtBMZY59szPdyUF4OI-15">
          <mxGeometry x="-0.2754" y="-1" relative="1" as="geometry">
            <mxPoint x="76.77" y="-14.34" as="offset" />
          </mxGeometry>
        </mxCell>
        <mxCell id="7_GtBMZY59szPdyUF4OI-17" value="" style="endArrow=classic;html=1;entryX=1;entryY=1;entryDx=0;entryDy=0;exitX=1;exitY=1;exitDx=0;exitDy=0;dashed=1;" edge="1" parent="jC1DPD_Gt9NOsdy32BHI-1" source="7_GtBMZY59szPdyUF4OI-14" target="7_GtBMZY59szPdyUF4OI-10">
          <mxGeometry width="50" height="50" relative="1" as="geometry">
            <mxPoint x="390" y="450" as="sourcePoint" />
            <mxPoint x="400" y="470" as="targetPoint" />
            <Array as="points">
              <mxPoint x="400" y="470" />
            </Array>
          </mxGeometry>
        </mxCell>
        <mxCell id="7_GtBMZY59szPdyUF4OI-18" value=":ListCommand" style="rounded=0;whiteSpace=wrap;html=1;" vertex="1" parent="jC1DPD_Gt9NOsdy32BHI-1">
          <mxGeometry x="530" y="320" width="100" height="40" as="geometry" />
        </mxCell>
        <mxCell id="7_GtBMZY59szPdyUF4OI-19" style="edgeStyle=orthogonalEdgeStyle;rounded=0;orthogonalLoop=1;jettySize=auto;html=1;endArrow=none;endFill=0;startArrow=open;startFill=0;exitX=0;exitY=0.5;exitDx=0;exitDy=0;" edge="1" parent="jC1DPD_Gt9NOsdy32BHI-1" source="7_GtBMZY59szPdyUF4OI-18">
          <mxGeometry relative="1" as="geometry">
            <mxPoint x="390" y="340" as="targetPoint" />
            <mxPoint x="500" y="340" as="sourcePoint" />
          </mxGeometry>
        </mxCell>
        <mxCell id="7_GtBMZY59szPdyUF4OI-20" value="new ListCommand(date)" style="edgeLabel;html=1;align=center;verticalAlign=middle;resizable=0;points=[];labelBackgroundColor=none;" vertex="1" connectable="0" parent="7_GtBMZY59szPdyUF4OI-19">
          <mxGeometry x="0.227" relative="1" as="geometry">
            <mxPoint x="15.83" y="-10" as="offset" />
          </mxGeometry>
        </mxCell>
        <mxCell id="7_GtBMZY59szPdyUF4OI-21" value="" style="rounded=0;whiteSpace=wrap;html=1;" vertex="1" parent="jC1DPD_Gt9NOsdy32BHI-1">
          <mxGeometry x="570" y="360" width="20" height="90" as="geometry" />
        </mxCell>
        <mxCell id="7_GtBMZY59szPdyUF4OI-22" value="" style="rounded=0;whiteSpace=wrap;html=1;" vertex="1" parent="jC1DPD_Gt9NOsdy32BHI-1">
          <mxGeometry x="580" y="380" width="20" height="40" as="geometry" />
        </mxCell>
        <mxCell id="7_GtBMZY59szPdyUF4OI-23" value="" style="endArrow=classic;html=1;entryX=1;entryY=0;entryDx=0;entryDy=0;exitX=1;exitY=0;exitDx=0;exitDy=0;" edge="1" parent="jC1DPD_Gt9NOsdy32BHI-1">
          <mxGeometry width="50" height="50" relative="1" as="geometry">
            <mxPoint x="590" y="360" as="sourcePoint" />
            <mxPoint x="600" y="380" as="targetPoint" />
            <Array as="points">
              <mxPoint x="610" y="370" />
            </Array>
          </mxGeometry>
        </mxCell>
        <mxCell id="7_GtBMZY59szPdyUF4OI-24" value="" style="endArrow=classic;html=1;entryX=1;entryY=1;entryDx=0;entryDy=0;exitX=1;exitY=0;exitDx=0;exitDy=0;dashed=1;" edge="1" parent="jC1DPD_Gt9NOsdy32BHI-1" target="7_GtBMZY59szPdyUF4OI-21">
          <mxGeometry width="50" height="50" relative="1" as="geometry">
            <mxPoint x="600" y="420" as="sourcePoint" />
            <mxPoint x="610" y="440" as="targetPoint" />
            <Array as="points">
              <mxPoint x="610" y="430" />
            </Array>
          </mxGeometry>
        </mxCell>
        <mxCell id="7_GtBMZY59szPdyUF4OI-25" value="date" style="edgeLabel;html=1;align=center;verticalAlign=middle;resizable=0;points=[];labelBackgroundColor=none;" vertex="1" connectable="0" parent="7_GtBMZY59szPdyUF4OI-24">
          <mxGeometry x="-0.4222" y="-3" relative="1" as="geometry">
            <mxPoint x="13.4" as="offset" />
          </mxGeometry>
        </mxCell>
        <mxCell id="7_GtBMZY59szPdyUF4OI-26" style="edgeStyle=orthogonalEdgeStyle;rounded=0;orthogonalLoop=1;jettySize=auto;html=1;startArrow=none;startFill=0;endArrow=open;endFill=0;dashed=1;" edge="1" parent="jC1DPD_Gt9NOsdy32BHI-1">
          <mxGeometry relative="1" as="geometry">
            <mxPoint x="390" y="450" as="targetPoint" />
            <mxPoint x="570" y="450" as="sourcePoint" />
            <Array as="points">
              <mxPoint x="410" y="450" />
            </Array>
          </mxGeometry>
        </mxCell>
        <mxCell id="7_GtBMZY59szPdyUF4OI-27" value="listCommand" style="edgeLabel;html=1;align=center;verticalAlign=middle;resizable=0;points=[];labelBackgroundColor=none;" vertex="1" connectable="0" parent="7_GtBMZY59szPdyUF4OI-26">
          <mxGeometry x="0.1889" y="1" relative="1" as="geometry">
            <mxPoint x="17" y="-11" as="offset" />
          </mxGeometry>
        </mxCell>
        <mxCell id="7_GtBMZY59szPdyUF4OI-75" value="listCommand" style="edgeLabel;html=1;align=center;verticalAlign=middle;resizable=0;points=[];labelBackgroundColor=none;" vertex="1" connectable="0" parent="7_GtBMZY59szPdyUF4OI-26">
          <mxGeometry x="0.1889" y="1" relative="1" as="geometry">
            <mxPoint x="-193.06" y="19" as="offset" />
          </mxGeometry>
        </mxCell>
        <mxCell id="7_GtBMZY59szPdyUF4OI-28" value="" style="endArrow=none;dashed=1;html=1;" edge="1" parent="jC1DPD_Gt9NOsdy32BHI-1">
          <mxGeometry width="50" height="50" relative="1" as="geometry">
            <mxPoint x="578.9999999999998" y="500" as="sourcePoint" />
            <mxPoint x="579.31" y="450" as="targetPoint" />
          </mxGeometry>
        </mxCell>
        <mxCell id="7_GtBMZY59szPdyUF4OI-29" style="edgeStyle=orthogonalEdgeStyle;rounded=0;orthogonalLoop=1;jettySize=auto;html=1;startArrow=open;startFill=0;endArrow=none;endFill=0;" edge="1" parent="jC1DPD_Gt9NOsdy32BHI-1" source="7_GtBMZY59szPdyUF4OI-31">
          <mxGeometry relative="1" as="geometry">
            <mxPoint x="180" y="500" as="targetPoint" />
            <Array as="points">
              <mxPoint x="240" y="500" />
            </Array>
          </mxGeometry>
        </mxCell>
        <mxCell id="7_GtBMZY59szPdyUF4OI-30" value="execute()" style="edgeLabel;html=1;align=center;verticalAlign=middle;resizable=0;points=[];labelBackgroundColor=none;" vertex="1" connectable="0" parent="7_GtBMZY59szPdyUF4OI-29">
          <mxGeometry x="0.6923" y="-151" relative="1" as="geometry">
            <mxPoint x="259.71" y="141" as="offset" />
          </mxGeometry>
        </mxCell>
        <mxCell id="7_GtBMZY59szPdyUF4OI-31" value="" style="rounded=0;whiteSpace=wrap;html=1;" vertex="1" parent="jC1DPD_Gt9NOsdy32BHI-1">
          <mxGeometry x="570" y="500" width="20" height="229" as="geometry" />
        </mxCell>
        <mxCell id="7_GtBMZY59szPdyUF4OI-32" style="edgeStyle=orthogonalEdgeStyle;rounded=0;orthogonalLoop=1;jettySize=auto;html=1;startArrow=none;startFill=0;endArrow=none;endFill=0;dashed=1;" edge="1" parent="jC1DPD_Gt9NOsdy32BHI-1" source="7_GtBMZY59szPdyUF4OI-36">
          <mxGeometry relative="1" as="geometry">
            <mxPoint x="827" y="970" as="targetPoint" />
            <Array as="points">
              <mxPoint x="827" y="965" />
            </Array>
          </mxGeometry>
        </mxCell>
        <mxCell id="7_GtBMZY59szPdyUF4OI-33" value=":DayMap" style="rounded=0;whiteSpace=wrap;html=1;" vertex="1" parent="jC1DPD_Gt9NOsdy32BHI-1">
          <mxGeometry x="767" y="120" width="120" height="40" as="geometry" />
        </mxCell>
        <mxCell id="7_GtBMZY59szPdyUF4OI-34" style="edgeStyle=orthogonalEdgeStyle;rounded=0;orthogonalLoop=1;jettySize=auto;html=1;endArrow=none;endFill=0;startArrow=open;startFill=0;exitX=0;exitY=0;exitDx=0;exitDy=0;" edge="1" parent="jC1DPD_Gt9NOsdy32BHI-1" source="7_GtBMZY59szPdyUF4OI-36">
          <mxGeometry relative="1" as="geometry">
            <mxPoint x="590" y="520" as="targetPoint" />
            <mxPoint x="910" y="520" as="sourcePoint" />
            <Array as="points">
              <mxPoint x="750" y="520" />
              <mxPoint x="750" y="520" />
            </Array>
          </mxGeometry>
        </mxCell>
        <mxCell id="7_GtBMZY59szPdyUF4OI-35" value="getActivityList(date)" style="edgeLabel;html=1;align=center;verticalAlign=middle;resizable=0;points=[];labelBackgroundColor=none;" vertex="1" connectable="0" parent="7_GtBMZY59szPdyUF4OI-34">
          <mxGeometry x="-0.0941" y="-4" relative="1" as="geometry">
            <mxPoint x="-5.29" y="-6" as="offset" />
          </mxGeometry>
        </mxCell>
        <mxCell id="7_GtBMZY59szPdyUF4OI-36" value="" style="rounded=0;whiteSpace=wrap;html=1;" vertex="1" parent="jC1DPD_Gt9NOsdy32BHI-1">
          <mxGeometry x="817" y="520" width="20" height="50" as="geometry" />
        </mxCell>
        <mxCell id="7_GtBMZY59szPdyUF4OI-37" style="edgeStyle=orthogonalEdgeStyle;rounded=0;orthogonalLoop=1;jettySize=auto;html=1;startArrow=none;startFill=0;endArrow=none;endFill=0;dashed=1;" edge="1" parent="jC1DPD_Gt9NOsdy32BHI-1" source="7_GtBMZY59szPdyUF4OI-33" target="7_GtBMZY59szPdyUF4OI-36">
          <mxGeometry relative="1" as="geometry">
            <mxPoint x="817" y="964.7058823529412" as="targetPoint" />
            <mxPoint x="827" y="160" as="sourcePoint" />
            <Array as="points">
              <mxPoint x="827" y="400" />
              <mxPoint x="827" y="400" />
            </Array>
          </mxGeometry>
        </mxCell>
        <mxCell id="7_GtBMZY59szPdyUF4OI-38" style="edgeStyle=orthogonalEdgeStyle;rounded=0;orthogonalLoop=1;jettySize=auto;html=1;startArrow=none;startFill=0;endArrow=open;endFill=0;dashed=1;" edge="1" parent="jC1DPD_Gt9NOsdy32BHI-1">
          <mxGeometry relative="1" as="geometry">
            <mxPoint x="590" y="569.31" as="targetPoint" />
            <mxPoint x="817" y="569.3399999999999" as="sourcePoint" />
            <Array as="points">
              <mxPoint x="590" y="569.31" />
            </Array>
          </mxGeometry>
        </mxCell>
        <mxCell id="7_GtBMZY59szPdyUF4OI-39" value="activityList" style="edgeLabel;html=1;align=center;verticalAlign=middle;resizable=0;points=[];labelBackgroundColor=none;" vertex="1" connectable="0" parent="7_GtBMZY59szPdyUF4OI-38">
          <mxGeometry x="-0.1852" y="1" relative="1" as="geometry">
            <mxPoint x="-14.59" y="-11.03" as="offset" />
          </mxGeometry>
        </mxCell>
        <mxCell id="7_GtBMZY59szPdyUF4OI-40" value="lastSeenList:ActivityList" style="rounded=0;whiteSpace=wrap;html=1;" vertex="1" parent="jC1DPD_Gt9NOsdy32BHI-1">
          <mxGeometry x="960" y="610" width="140" height="40" as="geometry" />
        </mxCell>
        <mxCell id="7_GtBMZY59szPdyUF4OI-41" value="" style="rounded=0;whiteSpace=wrap;html=1;" vertex="1" parent="jC1DPD_Gt9NOsdy32BHI-1">
          <mxGeometry x="1020" y="650" width="20" height="20" as="geometry" />
        </mxCell>
        <mxCell id="7_GtBMZY59szPdyUF4OI-42" value="" style="rounded=0;whiteSpace=wrap;html=1;" vertex="1" parent="jC1DPD_Gt9NOsdy32BHI-1">
          <mxGeometry x="817" y="620" width="20" height="60" as="geometry" />
        </mxCell>
        <mxCell id="7_GtBMZY59szPdyUF4OI-43" style="edgeStyle=orthogonalEdgeStyle;rounded=0;orthogonalLoop=1;jettySize=auto;html=1;endArrow=none;endFill=0;startArrow=open;startFill=0;exitX=0;exitY=0;exitDx=0;exitDy=0;" edge="1" parent="jC1DPD_Gt9NOsdy32BHI-1">
          <mxGeometry relative="1" as="geometry">
            <mxPoint x="590" y="620" as="targetPoint" />
            <mxPoint x="817" y="620" as="sourcePoint" />
            <Array as="points">
              <mxPoint x="750" y="620" />
              <mxPoint x="750" y="620" />
            </Array>
          </mxGeometry>
        </mxCell>
        <mxCell id="7_GtBMZY59szPdyUF4OI-44" value="setLastSeenList(activityList)" style="edgeLabel;html=1;align=center;verticalAlign=middle;resizable=0;points=[];labelBackgroundColor=none;" vertex="1" connectable="0" parent="7_GtBMZY59szPdyUF4OI-43">
          <mxGeometry x="-0.0941" y="-4" relative="1" as="geometry">
            <mxPoint x="-5.29" y="-6" as="offset" />
          </mxGeometry>
        </mxCell>
        <mxCell id="7_GtBMZY59szPdyUF4OI-45" style="edgeStyle=orthogonalEdgeStyle;rounded=0;orthogonalLoop=1;jettySize=auto;html=1;startArrow=none;startFill=0;endArrow=open;endFill=0;dashed=1;" edge="1" parent="jC1DPD_Gt9NOsdy32BHI-1">
          <mxGeometry relative="1" as="geometry">
            <mxPoint x="590" y="680" as="targetPoint" />
            <mxPoint x="817" y="680.0299999999997" as="sourcePoint" />
            <Array as="points">
              <mxPoint x="590" y="680" />
            </Array>
          </mxGeometry>
        </mxCell>
        <mxCell id="7_GtBMZY59szPdyUF4OI-49" style="edgeStyle=orthogonalEdgeStyle;rounded=0;orthogonalLoop=1;jettySize=auto;html=1;endArrow=none;endFill=0;startArrow=open;startFill=0;" edge="1" parent="jC1DPD_Gt9NOsdy32BHI-1" target="7_GtBMZY59szPdyUF4OI-42" source="7_GtBMZY59szPdyUF4OI-40">
          <mxGeometry relative="1" as="geometry">
            <mxPoint x="840" y="630" as="targetPoint" />
            <mxPoint x="950" y="630" as="sourcePoint" />
            <Array as="points">
              <mxPoint x="920" y="630" />
              <mxPoint x="920" y="630" />
            </Array>
          </mxGeometry>
        </mxCell>
        <mxCell id="7_GtBMZY59szPdyUF4OI-50" style="edgeStyle=orthogonalEdgeStyle;rounded=0;orthogonalLoop=1;jettySize=auto;html=1;startArrow=none;startFill=0;endArrow=open;endFill=0;dashed=1;" edge="1" parent="jC1DPD_Gt9NOsdy32BHI-1">
          <mxGeometry relative="1" as="geometry">
            <mxPoint x="837" y="670" as="targetPoint" />
            <mxPoint x="1020" y="670" as="sourcePoint" />
            <Array as="points">
              <mxPoint x="837" y="670" />
            </Array>
          </mxGeometry>
        </mxCell>
        <mxCell id="7_GtBMZY59szPdyUF4OI-66" value="" style="endArrow=none;dashed=1;html=1;exitX=0.5;exitY=0;exitDx=0;exitDy=0;" edge="1" parent="jC1DPD_Gt9NOsdy32BHI-1">
          <mxGeometry width="50" height="50" relative="1" as="geometry">
            <mxPoint x="1029.69" y="700" as="sourcePoint" />
            <mxPoint x="1029.58" y="670" as="targetPoint" />
          </mxGeometry>
        </mxCell>
        <mxCell id="7_GtBMZY59szPdyUF4OI-67" value="" style="endArrow=none;dashed=1;html=1;" edge="1" parent="jC1DPD_Gt9NOsdy32BHI-1" target="7_GtBMZY59szPdyUF4OI-31">
          <mxGeometry width="50" height="50" relative="1" as="geometry">
            <mxPoint x="580" y="790" as="sourcePoint" />
            <mxPoint x="580" y="820" as="targetPoint" />
          </mxGeometry>
        </mxCell>
        <mxCell id="7_GtBMZY59szPdyUF4OI-68" value="" style="endArrow=none;html=1;" edge="1" parent="jC1DPD_Gt9NOsdy32BHI-1">
          <mxGeometry width="50" height="50" relative="1" as="geometry">
            <mxPoint x="570" y="800" as="sourcePoint" />
            <mxPoint x="590" y="780" as="targetPoint" />
          </mxGeometry>
        </mxCell>
        <mxCell id="7_GtBMZY59szPdyUF4OI-69" value="" style="endArrow=none;html=1;" edge="1" parent="jC1DPD_Gt9NOsdy32BHI-1">
          <mxGeometry width="50" height="50" relative="1" as="geometry">
            <mxPoint x="590" y="800" as="sourcePoint" />
            <mxPoint x="570" y="780" as="targetPoint" />
          </mxGeometry>
        </mxCell>
        <mxCell id="7_GtBMZY59szPdyUF4OI-73" value="&lt;font style=&quot;font-size: 20px&quot;&gt;Logic&lt;/font&gt;" style="text;html=1;strokeColor=none;fillColor=none;align=center;verticalAlign=middle;whiteSpace=wrap;rounded=0;" vertex="1" parent="jC1DPD_Gt9NOsdy32BHI-1">
          <mxGeometry x="440" y="70" width="60" height="30" as="geometry" />
        </mxCell>
        <mxCell id="7_GtBMZY59szPdyUF4OI-74" value="&lt;font style=&quot;font-size: 20px&quot;&gt;Model&lt;/font&gt;" style="text;html=1;strokeColor=none;fillColor=none;align=center;verticalAlign=middle;whiteSpace=wrap;rounded=0;" vertex="1" parent="jC1DPD_Gt9NOsdy32BHI-1">
          <mxGeometry x="950" y="70" width="40" height="20" as="geometry" />
        </mxCell>
      </root>
    </mxGraphModel>
  </diagram>
  <diagram id="Moun1YKERIO5gmIIub_u" name="Page-3">
    <mxGraphModel dx="1053" dy="1041" grid="0" gridSize="10" guides="1" tooltips="1" connect="1" arrows="1" fold="1" page="1" pageScale="1" pageWidth="1654" pageHeight="1169" math="0" shadow="0">
      <root>
        <mxCell id="u4TWmrjghteonMciog3i-0" />
        <mxCell id="u4TWmrjghteonMciog3i-1" parent="u4TWmrjghteonMciog3i-0" />
        <mxCell id="CY-3bg6EMUCQuSIDsnf6-5" value="" style="rounded=0;whiteSpace=wrap;html=1;" vertex="1" parent="u4TWmrjghteonMciog3i-1">
          <mxGeometry x="120" y="130" width="640" height="296" as="geometry" />
        </mxCell>
        <mxCell id="u4TWmrjghteonMciog3i-3" style="edgeStyle=orthogonalEdgeStyle;rounded=0;orthogonalLoop=1;jettySize=auto;html=1;startArrow=none;startFill=0;endArrow=none;endFill=0;strokeColor=#000000;dashed=1;" edge="1" parent="u4TWmrjghteonMciog3i-1" source="u4TWmrjghteonMciog3i-5">
          <mxGeometry relative="1" as="geometry">
            <mxPoint x="180" y="400" as="targetPoint" />
          </mxGeometry>
        </mxCell>
        <mxCell id="u4TWmrjghteonMciog3i-2" value=":listCommand" style="whiteSpace=wrap;html=1;labelBackgroundColor=none;strokeWidth=1;" vertex="1" parent="u4TWmrjghteonMciog3i-1">
          <mxGeometry x="120" y="50" width="120" height="40" as="geometry" />
        </mxCell>
        <mxCell id="u4TWmrjghteonMciog3i-5" value="" style="rounded=0;whiteSpace=wrap;html=1;labelBackgroundColor=none;strokeWidth=1;" vertex="1" parent="u4TWmrjghteonMciog3i-1">
          <mxGeometry x="170" y="180" width="20" height="160" as="geometry" />
        </mxCell>
        <mxCell id="u4TWmrjghteonMciog3i-6" style="edgeStyle=orthogonalEdgeStyle;rounded=0;orthogonalLoop=1;jettySize=auto;html=1;startArrow=none;startFill=0;endArrow=none;endFill=0;strokeColor=#000000;dashed=1;" edge="1" parent="u4TWmrjghteonMciog3i-1" source="u4TWmrjghteonMciog3i-2" target="u4TWmrjghteonMciog3i-5">
          <mxGeometry relative="1" as="geometry">
            <mxPoint x="180" y="681" as="targetPoint" />
            <mxPoint x="180" y="130" as="sourcePoint" />
          </mxGeometry>
        </mxCell>
        <mxCell id="iRfjJldpwbUTZSvFE2zd-1" value="" style="endArrow=open;html=1;strokeColor=#000000;endFill=0;" edge="1" parent="u4TWmrjghteonMciog3i-1">
          <mxGeometry width="50" height="50" relative="1" as="geometry">
            <mxPoint x="190" y="180" as="sourcePoint" />
            <mxPoint x="400" y="180" as="targetPoint" />
          </mxGeometry>
        </mxCell>
        <mxCell id="iRfjJldpwbUTZSvFE2zd-4" value="drawListAfterListCommand(date)" style="edgeLabel;html=1;align=center;verticalAlign=middle;resizable=0;points=[];" vertex="1" connectable="0" parent="iRfjJldpwbUTZSvFE2zd-1">
          <mxGeometry x="-0.2" y="3" relative="1" as="geometry">
            <mxPoint x="5.83" y="-7" as="offset" />
          </mxGeometry>
        </mxCell>
        <mxCell id="iRfjJldpwbUTZSvFE2zd-2" value=":DayMap" style="whiteSpace=wrap;html=1;labelBackgroundColor=none;strokeWidth=1;" vertex="1" parent="u4TWmrjghteonMciog3i-1">
          <mxGeometry x="350" y="50" width="120" height="40" as="geometry" />
        </mxCell>
        <mxCell id="iRfjJldpwbUTZSvFE2zd-3" value="" style="rounded=0;whiteSpace=wrap;html=1;labelBackgroundColor=none;strokeWidth=1;" vertex="1" parent="u4TWmrjghteonMciog3i-1">
          <mxGeometry x="400" y="180" width="20" height="160" as="geometry" />
        </mxCell>
        <mxCell id="iRfjJldpwbUTZSvFE2zd-5" value="" style="rounded=0;whiteSpace=wrap;html=1;labelBackgroundColor=none;strokeWidth=1;" vertex="1" parent="u4TWmrjghteonMciog3i-1">
          <mxGeometry x="660" y="270" width="20" height="70" as="geometry" />
        </mxCell>
        <mxCell id="oEwk5l0kD9LOfuJza4Wl-5" style="edgeStyle=orthogonalEdgeStyle;rounded=0;orthogonalLoop=1;jettySize=auto;html=1;startArrow=none;startFill=0;endArrow=none;endFill=0;strokeColor=#000000;dashed=1;exitX=0.5;exitY=1;exitDx=0;exitDy=0;" edge="1" parent="u4TWmrjghteonMciog3i-1" source="iRfjJldpwbUTZSvFE2zd-2">
          <mxGeometry relative="1" as="geometry">
            <mxPoint x="410" y="180" as="targetPoint" />
            <mxPoint x="410" y="130" as="sourcePoint" />
          </mxGeometry>
        </mxCell>
        <mxCell id="oEwk5l0kD9LOfuJza4Wl-6" value=":ListDrawer" style="whiteSpace=wrap;html=1;labelBackgroundColor=none;strokeWidth=1;" vertex="1" parent="u4TWmrjghteonMciog3i-1">
          <mxGeometry x="610" y="170" width="120" height="40" as="geometry" />
        </mxCell>
        <mxCell id="oEwk5l0kD9LOfuJza4Wl-9" value="" style="rounded=0;whiteSpace=wrap;html=1;labelBackgroundColor=none;strokeWidth=1;" vertex="1" parent="u4TWmrjghteonMciog3i-1">
          <mxGeometry x="660" y="210" width="20" height="30" as="geometry" />
        </mxCell>
        <mxCell id="oEwk5l0kD9LOfuJza4Wl-10" value="" style="endArrow=open;html=1;strokeColor=#000000;endFill=0;" edge="1" parent="u4TWmrjghteonMciog3i-1">
          <mxGeometry width="50" height="50" relative="1" as="geometry">
            <mxPoint x="420" y="189.65999999999988" as="sourcePoint" />
            <mxPoint x="610" y="189" as="targetPoint" />
          </mxGeometry>
        </mxCell>
        <mxCell id="oEwk5l0kD9LOfuJza4Wl-11" value="new ListDrawer(date, lastSeenList)" style="edgeLabel;html=1;align=center;verticalAlign=middle;resizable=0;points=[];" vertex="1" connectable="0" parent="oEwk5l0kD9LOfuJza4Wl-10">
          <mxGeometry x="-0.2" y="3" relative="1" as="geometry">
            <mxPoint x="14.15" y="-6.4" as="offset" />
          </mxGeometry>
        </mxCell>
        <mxCell id="oEwk5l0kD9LOfuJza4Wl-12" value="" style="endArrow=open;html=1;dashed=1;strokeColor=#000000;exitX=0;exitY=1;exitDx=0;exitDy=0;endFill=0;" edge="1" parent="u4TWmrjghteonMciog3i-1" source="oEwk5l0kD9LOfuJza4Wl-9">
          <mxGeometry width="50" height="50" relative="1" as="geometry">
            <mxPoint x="650" y="239.9999999999999" as="sourcePoint" />
            <mxPoint x="420" y="240" as="targetPoint" />
          </mxGeometry>
        </mxCell>
        <mxCell id="oEwk5l0kD9LOfuJza4Wl-13" style="edgeStyle=orthogonalEdgeStyle;rounded=0;orthogonalLoop=1;jettySize=auto;html=1;startArrow=none;startFill=0;endArrow=none;endFill=0;strokeColor=#000000;dashed=1;" edge="1" parent="u4TWmrjghteonMciog3i-1">
          <mxGeometry relative="1" as="geometry">
            <mxPoint x="670" y="270" as="targetPoint" />
            <mxPoint x="669.76" y="240" as="sourcePoint" />
          </mxGeometry>
        </mxCell>
        <mxCell id="oEwk5l0kD9LOfuJza4Wl-14" value="" style="endArrow=open;html=1;strokeColor=#000000;endFill=0;" edge="1" parent="u4TWmrjghteonMciog3i-1">
          <mxGeometry width="50" height="50" relative="1" as="geometry">
            <mxPoint x="420" y="270" as="sourcePoint" />
            <mxPoint x="660" y="270" as="targetPoint" />
          </mxGeometry>
        </mxCell>
        <mxCell id="oEwk5l0kD9LOfuJza4Wl-15" value="printList()" style="edgeLabel;html=1;align=center;verticalAlign=middle;resizable=0;points=[];" vertex="1" connectable="0" parent="oEwk5l0kD9LOfuJza4Wl-14">
          <mxGeometry x="-0.2" y="3" relative="1" as="geometry">
            <mxPoint x="14.15" y="-6.4" as="offset" />
          </mxGeometry>
        </mxCell>
        <mxCell id="oEwk5l0kD9LOfuJza4Wl-18" value="" style="endArrow=open;html=1;dashed=1;strokeColor=#000000;exitX=0;exitY=1;exitDx=0;exitDy=0;endFill=0;" edge="1" parent="u4TWmrjghteonMciog3i-1">
          <mxGeometry width="50" height="50" relative="1" as="geometry">
            <mxPoint x="660" y="340" as="sourcePoint" />
            <mxPoint x="420" y="340" as="targetPoint" />
          </mxGeometry>
        </mxCell>
        <mxCell id="oEwk5l0kD9LOfuJza4Wl-19" value="" style="endArrow=open;html=1;dashed=1;strokeColor=#000000;exitX=0;exitY=1;exitDx=0;exitDy=0;endFill=0;" edge="1" parent="u4TWmrjghteonMciog3i-1" source="iRfjJldpwbUTZSvFE2zd-3">
          <mxGeometry width="50" height="50" relative="1" as="geometry">
            <mxPoint x="390" y="340" as="sourcePoint" />
            <mxPoint x="190" y="340" as="targetPoint" />
          </mxGeometry>
        </mxCell>
        <mxCell id="oEwk5l0kD9LOfuJza4Wl-20" style="edgeStyle=orthogonalEdgeStyle;rounded=0;orthogonalLoop=1;jettySize=auto;html=1;startArrow=none;startFill=0;endArrow=none;endFill=0;strokeColor=#000000;dashed=1;" edge="1" parent="u4TWmrjghteonMciog3i-1">
          <mxGeometry relative="1" as="geometry">
            <mxPoint x="669.6600000000001" y="400" as="targetPoint" />
            <mxPoint x="669.6600000000001" y="340" as="sourcePoint" />
          </mxGeometry>
        </mxCell>
        <mxCell id="CY-3bg6EMUCQuSIDsnf6-0" value="" style="endArrow=none;html=1;" edge="1" parent="u4TWmrjghteonMciog3i-1">
          <mxGeometry width="50" height="50" relative="1" as="geometry">
            <mxPoint x="170" y="410" as="sourcePoint" />
            <mxPoint x="190" y="390" as="targetPoint" />
          </mxGeometry>
        </mxCell>
        <mxCell id="CY-3bg6EMUCQuSIDsnf6-1" value="" style="endArrow=none;html=1;" edge="1" parent="u4TWmrjghteonMciog3i-1">
          <mxGeometry width="50" height="50" relative="1" as="geometry">
            <mxPoint x="190" y="410" as="sourcePoint" />
            <mxPoint x="170" y="390" as="targetPoint" />
          </mxGeometry>
        </mxCell>
        <mxCell id="CY-3bg6EMUCQuSIDsnf6-2" value="" style="endArrow=none;html=1;" edge="1" parent="u4TWmrjghteonMciog3i-1">
          <mxGeometry width="50" height="50" relative="1" as="geometry">
            <mxPoint x="660" y="410" as="sourcePoint" />
            <mxPoint x="680" y="390" as="targetPoint" />
          </mxGeometry>
        </mxCell>
        <mxCell id="CY-3bg6EMUCQuSIDsnf6-3" value="" style="endArrow=none;html=1;" edge="1" parent="u4TWmrjghteonMciog3i-1">
          <mxGeometry width="50" height="50" relative="1" as="geometry">
            <mxPoint x="680" y="410" as="sourcePoint" />
            <mxPoint x="660" y="390" as="targetPoint" />
          </mxGeometry>
        </mxCell>
        <mxCell id="CY-3bg6EMUCQuSIDsnf6-4" value="" style="endArrow=open;html=1;dashed=1;exitX=0;exitY=1;exitDx=0;exitDy=0;endFill=0;" edge="1" parent="u4TWmrjghteonMciog3i-1">
          <mxGeometry width="50" height="50" relative="1" as="geometry">
            <mxPoint x="170" y="339.4299999999999" as="sourcePoint" />
            <mxPoint x="20" y="339" as="targetPoint" />
          </mxGeometry>
        </mxCell>
        <mxCell id="CY-3bg6EMUCQuSIDsnf6-6" value="" style="endArrow=open;html=1;strokeColor=#000000;endFill=0;" edge="1" parent="u4TWmrjghteonMciog3i-1">
          <mxGeometry width="50" height="50" relative="1" as="geometry">
            <mxPoint x="20" y="110" as="sourcePoint" />
            <mxPoint x="180" y="110" as="targetPoint" />
          </mxGeometry>
        </mxCell>
        <mxCell id="CY-3bg6EMUCQuSIDsnf6-7" value="execute()" style="edgeLabel;html=1;align=center;verticalAlign=middle;resizable=0;points=[];" vertex="1" connectable="0" parent="CY-3bg6EMUCQuSIDsnf6-6">
          <mxGeometry x="-0.2" y="3" relative="1" as="geometry">
            <mxPoint x="5.83" y="-7" as="offset" />
          </mxGeometry>
        </mxCell>
        <mxCell id="CY-3bg6EMUCQuSIDsnf6-8" style="edgeStyle=orthogonalEdgeStyle;rounded=0;orthogonalLoop=1;jettySize=auto;html=1;startArrow=none;startFill=0;endArrow=none;endFill=0;strokeColor=#000000;dashed=1;exitX=0.5;exitY=1;exitDx=0;exitDy=0;" edge="1" parent="u4TWmrjghteonMciog3i-1" source="iRfjJldpwbUTZSvFE2zd-3">
          <mxGeometry relative="1" as="geometry">
            <mxPoint x="409.66" y="460" as="targetPoint" />
            <mxPoint x="409.66" y="370" as="sourcePoint" />
          </mxGeometry>
        </mxCell>
      </root>
    </mxGraphModel>
  </diagram>
  <diagram id="DvR0oOZvx2u6ADK2aKFt" name="Page-4">
    <mxGraphModel dx="950" dy="786" grid="0" gridSize="10" guides="1" tooltips="1" connect="1" arrows="1" fold="1" page="1" pageScale="1" pageWidth="1654" pageHeight="1169" math="0" shadow="0">
      <root>
        <mxCell id="1IzDvK7mbYUb49n09maJ-0" />
        <mxCell id="1IzDvK7mbYUb49n09maJ-1" parent="1IzDvK7mbYUb49n09maJ-0" />
        <mxCell id="ALFqYHPWQV_xIsBhe5S_-0" value="" style="rounded=0;whiteSpace=wrap;html=1;" vertex="1" parent="1IzDvK7mbYUb49n09maJ-1">
          <mxGeometry x="120" y="130" width="640" height="296" as="geometry" />
        </mxCell>
        <mxCell id="ALFqYHPWQV_xIsBhe5S_-1" style="edgeStyle=orthogonalEdgeStyle;rounded=0;orthogonalLoop=1;jettySize=auto;html=1;startArrow=none;startFill=0;endArrow=none;endFill=0;strokeColor=#000000;dashed=1;" edge="1" parent="1IzDvK7mbYUb49n09maJ-1" source="ALFqYHPWQV_xIsBhe5S_-3">
          <mxGeometry relative="1" as="geometry">
            <mxPoint x="180" y="400" as="targetPoint" />
          </mxGeometry>
        </mxCell>
        <mxCell id="ALFqYHPWQV_xIsBhe5S_-2" value=":MoveActivityCommand" style="whiteSpace=wrap;html=1;labelBackgroundColor=none;strokeWidth=1;" vertex="1" parent="1IzDvK7mbYUb49n09maJ-1">
          <mxGeometry x="110" y="50" width="140" height="40" as="geometry" />
        </mxCell>
        <mxCell id="ALFqYHPWQV_xIsBhe5S_-3" value="" style="rounded=0;whiteSpace=wrap;html=1;labelBackgroundColor=none;strokeWidth=1;" vertex="1" parent="1IzDvK7mbYUb49n09maJ-1">
          <mxGeometry x="170" y="180" width="20" height="120" as="geometry" />
        </mxCell>
        <mxCell id="ALFqYHPWQV_xIsBhe5S_-4" style="edgeStyle=orthogonalEdgeStyle;rounded=0;orthogonalLoop=1;jettySize=auto;html=1;startArrow=none;startFill=0;endArrow=none;endFill=0;strokeColor=#000000;dashed=1;" edge="1" parent="1IzDvK7mbYUb49n09maJ-1" source="ALFqYHPWQV_xIsBhe5S_-2" target="ALFqYHPWQV_xIsBhe5S_-3">
          <mxGeometry relative="1" as="geometry">
            <mxPoint x="180" y="681" as="targetPoint" />
            <mxPoint x="180" y="130" as="sourcePoint" />
          </mxGeometry>
        </mxCell>
        <mxCell id="ALFqYHPWQV_xIsBhe5S_-5" value="" style="endArrow=open;html=1;strokeColor=#000000;endFill=0;" edge="1" parent="1IzDvK7mbYUb49n09maJ-1">
          <mxGeometry width="50" height="50" relative="1" as="geometry">
            <mxPoint x="190" y="189.5" as="sourcePoint" />
            <mxPoint x="400" y="189.5" as="targetPoint" />
          </mxGeometry>
        </mxCell>
        <mxCell id="ALFqYHPWQV_xIsBhe5S_-6" value="move(index1, index2)" style="edgeLabel;html=1;align=center;verticalAlign=middle;resizable=0;points=[];" vertex="1" connectable="0" parent="ALFqYHPWQV_xIsBhe5S_-5">
          <mxGeometry x="-0.2" y="3" relative="1" as="geometry">
            <mxPoint x="5.83" y="-7" as="offset" />
          </mxGeometry>
        </mxCell>
        <mxCell id="ALFqYHPWQV_xIsBhe5S_-7" value=":DayMap" style="whiteSpace=wrap;html=1;labelBackgroundColor=none;strokeWidth=1;" vertex="1" parent="1IzDvK7mbYUb49n09maJ-1">
          <mxGeometry x="350" y="50" width="120" height="40" as="geometry" />
        </mxCell>
        <mxCell id="ALFqYHPWQV_xIsBhe5S_-8" value="" style="rounded=0;whiteSpace=wrap;html=1;labelBackgroundColor=none;strokeWidth=1;" vertex="1" parent="1IzDvK7mbYUb49n09maJ-1">
          <mxGeometry x="400" y="190" width="20" height="110" as="geometry" />
        </mxCell>
        <mxCell id="ALFqYHPWQV_xIsBhe5S_-10" style="edgeStyle=orthogonalEdgeStyle;rounded=0;orthogonalLoop=1;jettySize=auto;html=1;startArrow=none;startFill=0;endArrow=none;endFill=0;strokeColor=#000000;dashed=1;exitX=0.5;exitY=1;exitDx=0;exitDy=0;" edge="1" parent="1IzDvK7mbYUb49n09maJ-1" source="ALFqYHPWQV_xIsBhe5S_-7" target="ALFqYHPWQV_xIsBhe5S_-8">
          <mxGeometry relative="1" as="geometry">
            <mxPoint x="410" y="180" as="targetPoint" />
            <mxPoint x="410" y="130" as="sourcePoint" />
          </mxGeometry>
        </mxCell>
        <mxCell id="ALFqYHPWQV_xIsBhe5S_-11" value=":ActivityList" style="whiteSpace=wrap;html=1;labelBackgroundColor=none;strokeWidth=1;" vertex="1" parent="1IzDvK7mbYUb49n09maJ-1">
          <mxGeometry x="610" y="50" width="120" height="40" as="geometry" />
        </mxCell>
        <mxCell id="ALFqYHPWQV_xIsBhe5S_-12" value="" style="rounded=0;whiteSpace=wrap;html=1;labelBackgroundColor=none;strokeWidth=1;" vertex="1" parent="1IzDvK7mbYUb49n09maJ-1">
          <mxGeometry x="660" y="210" width="20" height="90" as="geometry" />
        </mxCell>
        <mxCell id="ALFqYHPWQV_xIsBhe5S_-13" value="" style="endArrow=open;html=1;strokeColor=#000000;endFill=0;" edge="1" parent="1IzDvK7mbYUb49n09maJ-1">
          <mxGeometry width="50" height="50" relative="1" as="geometry">
            <mxPoint x="420" y="210.65999999999985" as="sourcePoint" />
            <mxPoint x="610" y="210" as="targetPoint" />
          </mxGeometry>
        </mxCell>
        <mxCell id="ALFqYHPWQV_xIsBhe5S_-14" value="moveActivity(index1, index2)" style="edgeLabel;html=1;align=center;verticalAlign=middle;resizable=0;points=[];" vertex="1" connectable="0" parent="ALFqYHPWQV_xIsBhe5S_-13">
          <mxGeometry x="-0.2" y="3" relative="1" as="geometry">
            <mxPoint x="44.01" y="-6.4" as="offset" />
          </mxGeometry>
        </mxCell>
        <mxCell id="ALFqYHPWQV_xIsBhe5S_-19" value="" style="endArrow=open;html=1;dashed=1;strokeColor=#000000;exitX=0;exitY=1;exitDx=0;exitDy=0;endFill=0;" edge="1" parent="1IzDvK7mbYUb49n09maJ-1">
          <mxGeometry width="50" height="50" relative="1" as="geometry">
            <mxPoint x="660" y="300" as="sourcePoint" />
            <mxPoint x="420" y="300" as="targetPoint" />
          </mxGeometry>
        </mxCell>
        <mxCell id="ALFqYHPWQV_xIsBhe5S_-20" value="" style="endArrow=open;html=1;dashed=1;strokeColor=#000000;exitX=0;exitY=1;exitDx=0;exitDy=0;endFill=0;entryX=1;entryY=1;entryDx=0;entryDy=0;" edge="1" parent="1IzDvK7mbYUb49n09maJ-1" source="ALFqYHPWQV_xIsBhe5S_-8" target="ALFqYHPWQV_xIsBhe5S_-3">
          <mxGeometry width="50" height="50" relative="1" as="geometry">
            <mxPoint x="390" y="340" as="sourcePoint" />
            <mxPoint x="190" y="340" as="targetPoint" />
          </mxGeometry>
        </mxCell>
        <mxCell id="ALFqYHPWQV_xIsBhe5S_-21" style="edgeStyle=orthogonalEdgeStyle;rounded=0;orthogonalLoop=1;jettySize=auto;html=1;startArrow=none;startFill=0;endArrow=none;endFill=0;strokeColor=#000000;dashed=1;" edge="1" parent="1IzDvK7mbYUb49n09maJ-1" source="ALFqYHPWQV_xIsBhe5S_-12">
          <mxGeometry relative="1" as="geometry">
            <mxPoint x="670" y="450" as="targetPoint" />
            <mxPoint x="669.6600000000003" y="340" as="sourcePoint" />
          </mxGeometry>
        </mxCell>
        <mxCell id="ALFqYHPWQV_xIsBhe5S_-22" value="" style="endArrow=none;html=1;" edge="1" parent="1IzDvK7mbYUb49n09maJ-1">
          <mxGeometry width="50" height="50" relative="1" as="geometry">
            <mxPoint x="170" y="410" as="sourcePoint" />
            <mxPoint x="190" y="390" as="targetPoint" />
          </mxGeometry>
        </mxCell>
        <mxCell id="ALFqYHPWQV_xIsBhe5S_-23" value="" style="endArrow=none;html=1;" edge="1" parent="1IzDvK7mbYUb49n09maJ-1">
          <mxGeometry width="50" height="50" relative="1" as="geometry">
            <mxPoint x="190" y="410" as="sourcePoint" />
            <mxPoint x="170" y="390" as="targetPoint" />
          </mxGeometry>
        </mxCell>
        <mxCell id="ALFqYHPWQV_xIsBhe5S_-26" style="edgeStyle=orthogonalEdgeStyle;rounded=0;orthogonalLoop=1;jettySize=auto;html=1;startArrow=none;startFill=0;endArrow=none;endFill=0;strokeColor=#000000;dashed=1;exitX=0.5;exitY=1;exitDx=0;exitDy=0;" edge="1" parent="1IzDvK7mbYUb49n09maJ-1" source="ALFqYHPWQV_xIsBhe5S_-8">
          <mxGeometry relative="1" as="geometry">
            <mxPoint x="409.6600000000001" y="460.0000000000002" as="targetPoint" />
            <mxPoint x="409.66" y="370" as="sourcePoint" />
          </mxGeometry>
        </mxCell>
        <mxCell id="ALFqYHPWQV_xIsBhe5S_-27" value="" style="endArrow=open;html=1;strokeColor=#000000;endFill=0;" edge="1" parent="1IzDvK7mbYUb49n09maJ-1">
          <mxGeometry width="50" height="50" relative="1" as="geometry">
            <mxPoint x="20" y="180" as="sourcePoint" />
            <mxPoint x="170" y="180" as="targetPoint" />
          </mxGeometry>
        </mxCell>
        <mxCell id="ALFqYHPWQV_xIsBhe5S_-28" value="execute()" style="edgeLabel;html=1;align=center;verticalAlign=middle;resizable=0;points=[];" vertex="1" connectable="0" parent="ALFqYHPWQV_xIsBhe5S_-27">
          <mxGeometry x="-0.2" y="3" relative="1" as="geometry">
            <mxPoint x="5.83" y="-7" as="offset" />
          </mxGeometry>
        </mxCell>
        <mxCell id="ALFqYHPWQV_xIsBhe5S_-29" value="" style="endArrow=open;html=1;dashed=1;strokeColor=#000000;exitX=0;exitY=1;exitDx=0;exitDy=0;endFill=0;" edge="1" parent="1IzDvK7mbYUb49n09maJ-1">
          <mxGeometry width="50" height="50" relative="1" as="geometry">
            <mxPoint x="170" y="299" as="sourcePoint" />
            <mxPoint x="20" y="299" as="targetPoint" />
          </mxGeometry>
        </mxCell>
        <mxCell id="ALFqYHPWQV_xIsBhe5S_-31" style="edgeStyle=orthogonalEdgeStyle;rounded=0;orthogonalLoop=1;jettySize=auto;html=1;startArrow=none;startFill=0;endArrow=none;endFill=0;strokeColor=#000000;dashed=1;exitX=0.5;exitY=1;exitDx=0;exitDy=0;entryX=0.5;entryY=0;entryDx=0;entryDy=0;" edge="1" parent="1IzDvK7mbYUb49n09maJ-1" target="ALFqYHPWQV_xIsBhe5S_-12">
          <mxGeometry relative="1" as="geometry">
            <mxPoint x="669.5" y="190" as="targetPoint" />
            <mxPoint x="669.5" y="90" as="sourcePoint" />
          </mxGeometry>
        </mxCell>
        <mxCell id="ALFqYHPWQV_xIsBhe5S_-32" value="" style="endArrow=open;html=1;strokeColor=#000000;endFill=0;entryX=0.844;entryY=0.27;entryDx=0;entryDy=0;entryPerimeter=0;" edge="1" parent="1IzDvK7mbYUb49n09maJ-1" target="ALFqYHPWQV_xIsBhe5S_-0">
          <mxGeometry width="50" height="50" relative="1" as="geometry">
            <mxPoint x="420" y="210.65999999999985" as="sourcePoint" />
            <mxPoint x="610" y="210" as="targetPoint" />
          </mxGeometry>
        </mxCell>
      </root>
    </mxGraphModel>
  </diagram>
</mxfile>
